<svg xmlns="http://www.w3.org/2000/svg" xmlns:xlink="http://www.w3.org/1999/xlink" width="500" zoomAndPan="magnify" viewBox="0 0 375 374.999991" height="500" preserveAspectRatio="xMidYMid meet" version="1.0"><defs><g/><clipPath id="bf9d06ae7d"><path d="M 0 0 L 375 0 L 375 374.789062 L 0 374.789062 Z M 0 0 " clip-rule="nonzero"/></clipPath><clipPath id="58b3040907"><path d="M 55.5 -0.210938 L 319.5 -0.210938 C 334.21875 -0.210938 348.335938 5.636719 358.746094 16.042969 C 369.152344 26.453125 375 40.566406 375 55.289062 L 375 319.289062 C 375 334.007812 369.152344 348.125 358.746094 358.53125 C 348.335938 368.941406 334.21875 374.789062 319.5 374.789062 L 55.5 374.789062 C 40.78125 374.789062 26.664062 368.941406 16.253906 358.53125 C 5.847656 348.125 0 334.007812 0 319.289062 L 0 55.289062 C 0 40.566406 5.847656 26.453125 16.253906 16.042969 C 26.664062 5.636719 40.78125 -0.210938 55.5 -0.210938 Z M 55.5 -0.210938 " clip-rule="nonzero"/></clipPath><clipPath id="d4f9c4600d"><path d="M 0 0 L 375 0 L 375 374.789062 L 0 374.789062 Z M 0 0 " clip-rule="nonzero"/></clipPath><clipPath id="72961a2855"><path d="M 55.5 -0.210938 L 319.5 -0.210938 C 334.21875 -0.210938 348.335938 5.636719 358.746094 16.042969 C 369.152344 26.453125 375 40.566406 375 55.289062 L 375 319.289062 C 375 334.007812 369.152344 348.125 358.746094 358.53125 C 348.335938 368.941406 334.21875 374.789062 319.5 374.789062 L 55.5 374.789062 C 40.78125 374.789062 26.664062 368.941406 16.253906 358.53125 C 5.847656 348.125 0 334.007812 0 319.289062 L 0 55.289062 C 0 40.566406 5.847656 26.453125 16.253906 16.042969 C 26.664062 5.636719 40.78125 -0.210938 55.5 -0.210938 Z M 55.5 -0.210938 " clip-rule="nonzero"/></clipPath><clipPath id="7e2a5ea965"><rect x="0" width="375" y="0" height="375"/></clipPath><clipPath id="7eaccf4e79"><rect x="0" width="205" y="0" height="375"/></clipPath></defs><g clip-path="url(#bf9d06ae7d)"><g clip-path="url(#58b3040907)"><g transform="matrix(1, 0, 0, 1, 0, 0)"><g clip-path="url(#7e2a5ea965)"><g clip-path="url(#d4f9c4600d)"><g clip-path="url(#72961a2855)"><path fill="#101010" d="M 0 -0.210938 L 375 -0.210938 L 375 374.789062 L 0 374.789062 Z M 0 -0.210938 " fill-opacity="1" fill-rule="nonzero"/></g></g></g></g></g></g><g transform="matrix(1, 0, 0, 1, 85, 0)"><g clip-path="url(#7eaccf4e79)"><g fill="#ffffff" fill-opacity="1"><g transform="translate(0.926972, 308.577556)"><g><path d="M 172.375 -242.21875 L 182.75 -242.390625 C 104.019531 -215.648438 64.484375 -196.171875 64.140625 -183.953125 C 62.066406 -181.878906 88.75 -160.613281 144.1875 -120.15625 C 178.300781 -92.957031 195.359375 -71.117188 195.359375 -54.640625 C 196.628906 -19.941406 145.109375 -1.726562 40.796875 0 L 8.296875 0 C 96.816406 -19.9375 140.960938 -40.164062 140.734375 -60.6875 C 134.160156 -74.863281 115.488281 -92.671875 84.71875 -114.109375 C 38.5 -146.265625 13.082031 -168.910156 8.46875 -182.046875 C 8.582031 -210.054688 63.21875 -230.113281 172.375 -242.21875 Z M 172.375 -242.21875 "/></g></g></g></g></g></svg>