<svg xmlns="http://www.w3.org/2000/svg" xmlns:xlink="http://www.w3.org/1999/xlink" width="660" zoomAndPan="magnify" viewBox="0 0 495 195.000001" height="260" preserveAspectRatio="xMidYMid meet" version="1.0"><defs><g/><clipPath id="47983b7d84"><path d="M 2.007812 2.085938 L 192.578125 2.085938 L 192.578125 192.652344 L 2.007812 192.652344 Z M 2.007812 2.085938 " clip-rule="nonzero"/></clipPath><clipPath id="357529e032"><path d="M 28.875 2.085938 L 165.714844 2.085938 C 180.550781 2.085938 192.578125 14.113281 192.578125 28.949219 L 192.578125 165.789062 C 192.578125 180.625 180.550781 192.652344 165.714844 192.652344 L 28.875 192.652344 C 14.035156 192.652344 2.007812 180.625 2.007812 165.789062 L 2.007812 28.949219 C 2.007812 14.113281 14.035156 2.085938 28.875 2.085938 Z M 28.875 2.085938 " clip-rule="nonzero"/></clipPath><clipPath id="f01e0c67aa"><path d="M 0.0078125 0.0859375 L 190.578125 0.0859375 L 190.578125 190.652344 L 0.0078125 190.652344 Z M 0.0078125 0.0859375 " clip-rule="nonzero"/></clipPath><clipPath id="e07fa8c94b"><path d="M 26.875 0.0859375 L 163.714844 0.0859375 C 178.550781 0.0859375 190.578125 12.113281 190.578125 26.949219 L 190.578125 163.789062 C 190.578125 178.625 178.550781 190.652344 163.714844 190.652344 L 26.875 190.652344 C 12.035156 190.652344 0.0078125 178.625 0.0078125 163.789062 L 0.0078125 26.949219 C 0.0078125 12.113281 12.035156 0.0859375 26.875 0.0859375 Z M 26.875 0.0859375 " clip-rule="nonzero"/></clipPath><clipPath id="a809d8481c"><rect x="0" width="191" y="0" height="191"/></clipPath><clipPath id="076f1fb60d"><path d="M 45 0 L 150 0 L 150 194.003906 L 45 194.003906 Z M 45 0 " clip-rule="nonzero"/></clipPath><clipPath id="cfaa155a5f"><rect x="0" width="105" y="0" height="195"/></clipPath></defs><g clip-path="url(#47983b7d84)"><g clip-path="url(#357529e032)"><g transform="matrix(1, 0, 0, 1, 2, 2)"><g clip-path="url(#a809d8481c)"><g clip-path="url(#f01e0c67aa)"><g clip-path="url(#e07fa8c94b)"><path fill="#101010" d="M 0.0078125 0.0859375 L 190.578125 0.0859375 L 190.578125 190.652344 L 0.0078125 190.652344 Z M 0.0078125 0.0859375 " fill-opacity="1" fill-rule="nonzero"/></g></g></g></g></g></g><g fill="#101010" fill-opacity="1"><g transform="translate(209.775194, 158.681063)"><g><path d="M 15.515625 0 L 15.515625 -124.09375 L 31.015625 -124.09375 L 31.015625 0 Z M 15.515625 0 "/></g></g></g><g fill="#101010" fill-opacity="1"><g transform="translate(247.867476, 158.681063)"><g><path d="M 59.453125 1.78125 C 48.304688 1.78125 39.109375 1.195312 31.859375 0.03125 C 24.617188 -1.125 19.234375 -3.664062 15.703125 -7.59375 C 12.179688 -11.519531 10.421875 -17.632812 10.421875 -25.9375 C 10.421875 -34.382812 12.078125 -40.585938 15.390625 -44.546875 C 18.703125 -48.515625 23.953125 -51.085938 31.140625 -52.265625 C 38.328125 -53.453125 47.765625 -54.046875 59.453125 -54.046875 C 68.929688 -54.046875 76.875 -53.828125 83.28125 -53.390625 C 89.695312 -52.960938 95.4375 -52.210938 100.5 -51.140625 C 100.394531 -58.304688 99.910156 -63.945312 99.046875 -68.0625 C 98.179688 -72.1875 96.5625 -75.242188 94.1875 -77.234375 C 91.820312 -79.222656 88.363281 -80.5 83.8125 -81.0625 C 79.257812 -81.632812 73.21875 -81.921875 65.6875 -81.921875 C 57.0625 -81.921875 50.3125 -81.726562 45.4375 -81.34375 C 40.5625 -80.96875 37.019531 -80.296875 34.8125 -79.328125 C 32.601562 -78.359375 31.21875 -76.957031 30.65625 -75.125 C 30.09375 -73.300781 29.8125 -70.929688 29.8125 -68.015625 L 14.296875 -68.015625 C 14.296875 -73.835938 15.085938 -78.523438 16.671875 -82.078125 C 18.265625 -85.628906 20.972656 -88.320312 24.796875 -90.15625 C 28.617188 -91.988281 33.859375 -93.226562 40.515625 -93.875 C 47.171875 -94.519531 55.5625 -94.84375 65.6875 -94.84375 C 76.5625 -94.84375 85.320312 -94.140625 91.96875 -92.734375 C 98.625 -91.335938 103.6875 -88.820312 107.15625 -85.1875 C 110.632812 -81.550781 112.976562 -76.472656 114.1875 -69.953125 C 115.40625 -63.441406 116.015625 -55.039062 116.015625 -44.75 L 116.015625 0 L 100.5 0 L 100.5 -6.375 C 98.664062 -4.4375 96.132812 -2.875 92.90625 -1.6875 C 89.675781 -0.507812 85.378906 0.359375 80.015625 0.921875 C 74.660156 1.492188 67.804688 1.78125 59.453125 1.78125 Z M 59.453125 -10.828125 C 68.671875 -10.828125 76.023438 -10.929688 81.515625 -11.140625 C 87.003906 -11.359375 91.109375 -11.953125 93.828125 -12.921875 C 96.554688 -13.890625 98.347656 -15.453125 99.203125 -17.609375 C 100.066406 -19.765625 100.5 -22.78125 100.5 -26.65625 L 100.5 -40.953125 L 59.453125 -41.4375 C 52.179688 -41.550781 46.320312 -41.457031 41.875 -41.15625 C 37.4375 -40.863281 34.0625 -40.21875 31.75 -39.21875 C 29.4375 -38.226562 27.890625 -36.664062 27.109375 -34.53125 C 26.328125 -32.40625 25.9375 -29.539062 25.9375 -25.9375 C 25.9375 -22.4375 26.328125 -19.660156 27.109375 -17.609375 C 27.890625 -15.566406 29.4375 -14.0625 31.75 -13.09375 C 34.0625 -12.125 37.4375 -11.503906 41.875 -11.234375 C 46.320312 -10.960938 52.179688 -10.828125 59.453125 -10.828125 Z M 59.453125 -10.828125 "/></g></g></g><g fill="#101010" fill-opacity="1"><g transform="translate(365.448817, 158.681063)"><g><path d="M 67.625 1.78125 C 57.65625 1.78125 49.238281 1.023438 42.375 -0.484375 C 35.507812 -1.992188 30.109375 -5.382812 26.171875 -10.65625 L 26.171875 0 L 10.65625 0 L 10.65625 -124.09375 L 26.171875 -124.09375 L 26.171875 -82.484375 C 30.109375 -87.710938 35.507812 -91.078125 42.375 -92.578125 C 49.238281 -94.085938 57.65625 -94.84375 67.625 -94.84375 C 78.070312 -94.84375 86.914062 -94.300781 94.15625 -93.21875 C 101.40625 -92.144531 107.265625 -89.992188 111.734375 -86.765625 C 116.203125 -83.535156 119.457031 -78.742188 121.5 -72.390625 C 123.550781 -66.035156 124.578125 -57.578125 124.578125 -47.015625 C 124.578125 -36.140625 123.550781 -27.441406 121.5 -20.921875 C 119.457031 -14.410156 116.203125 -9.523438 111.734375 -6.265625 C 107.265625 -3.003906 101.40625 -0.847656 94.15625 0.203125 C 86.914062 1.253906 78.070312 1.78125 67.625 1.78125 Z M 109.0625 -47.015625 C 109.0625 -54.722656 108.671875 -60.890625 107.890625 -65.515625 C 107.109375 -70.148438 105.394531 -73.640625 102.75 -75.984375 C 100.113281 -78.328125 96.007812 -79.898438 90.4375 -80.703125 C 84.863281 -81.515625 77.257812 -81.921875 67.625 -81.921875 C 58.84375 -81.921875 51.726562 -81.515625 46.28125 -80.703125 C 40.84375 -79.898438 36.671875 -78.328125 33.765625 -75.984375 C 30.859375 -73.640625 28.863281 -70.148438 27.78125 -65.515625 C 26.707031 -60.890625 26.171875 -54.722656 26.171875 -47.015625 C 26.171875 -39.046875 26.707031 -32.664062 27.78125 -27.875 C 28.863281 -23.082031 30.859375 -19.484375 33.765625 -17.078125 C 36.671875 -14.679688 40.84375 -13.09375 46.28125 -12.3125 C 51.726562 -11.539062 58.84375 -11.15625 67.625 -11.15625 C 77.257812 -11.15625 84.863281 -11.539062 90.4375 -12.3125 C 96.007812 -13.09375 100.113281 -14.679688 102.75 -17.078125 C 105.394531 -19.484375 107.109375 -23.082031 107.890625 -27.875 C 108.671875 -32.664062 109.0625 -39.046875 109.0625 -47.015625 Z M 109.0625 -47.015625 "/></g></g></g><g clip-path="url(#076f1fb60d)"><g transform="matrix(1, 0, 0, 1, 45, 0.000000000000040532)"><g clip-path="url(#cfaa155a5f)"><g fill="#ffffff" fill-opacity="1"><g transform="translate(0.675791, 159.007068)"><g><path d="M 87.59375 -123.09375 L 92.875 -123.1875 C 52.863281 -109.59375 32.769531 -99.691406 32.59375 -93.484375 C 31.539062 -92.429688 45.101562 -81.625 73.28125 -61.0625 C 90.613281 -47.238281 99.28125 -36.140625 99.28125 -27.765625 C 99.925781 -10.128906 73.742188 -0.875 20.734375 0 L 4.21875 0 C 49.195312 -10.132812 71.628906 -20.414062 71.515625 -30.84375 C 68.179688 -38.039062 58.691406 -47.085938 43.046875 -57.984375 C 19.554688 -74.328125 6.644531 -85.835938 4.3125 -92.515625 C 4.363281 -106.742188 32.125 -116.9375 87.59375 -123.09375 Z M 87.59375 -123.09375 "/></g></g></g></g></g></g></svg>