<svg xmlns="http://www.w3.org/2000/svg" xmlns:xlink="http://www.w3.org/1999/xlink" width="660" zoomAndPan="magnify" viewBox="0 0 495 195.000001" height="260" preserveAspectRatio="xMidYMid meet" version="1.0"><defs><g/><clipPath id="6c1a20569e"><path d="M 1.261719 0 L 234 0 L 234 194.003906 L 1.261719 194.003906 Z M 1.261719 0 " clip-rule="nonzero"/></clipPath><clipPath id="182c0bb9be"><rect x="0" width="233" y="0" height="195"/></clipPath><clipPath id="c1b61d4d9d"><path d="M 227 0 L 493.734375 0 L 493.734375 194.003906 L 227 194.003906 Z M 227 0 " clip-rule="nonzero"/></clipPath><clipPath id="e1133dc272"><rect x="0" width="267" y="0" height="195"/></clipPath></defs><g clip-path="url(#6c1a20569e)"><g transform="matrix(1, 0, 0, 1, 1, 0.000000000000040532)"><g clip-path="url(#182c0bb9be)"><g fill="#000000" fill-opacity="1"><g transform="translate(-10.305643, 174.92189)"><g><path d="M 48.125 -63.890625 C 43.207031 -63.890625 38.644531 -64.8125 34.4375 -66.65625 C 30.238281 -68.5 26.5625 -70.992188 23.40625 -74.140625 C 20.25 -77.296875 17.75 -80.976562 15.90625 -85.1875 C 14.0625 -89.394531 13.140625 -93.953125 13.140625 -98.859375 C 13.140625 -103.773438 14.0625 -108.332031 15.90625 -112.53125 C 17.75 -116.738281 20.25 -120.421875 23.40625 -123.578125 C 26.5625 -126.734375 30.238281 -129.226562 34.4375 -131.0625 C 38.644531 -132.90625 43.207031 -133.828125 48.125 -133.828125 L 207.71875 -133.828125 C 211.226562 -133.828125 214.207031 -132.597656 216.65625 -130.140625 C 219.113281 -127.691406 220.34375 -124.71875 220.34375 -121.21875 C 220.34375 -117.707031 219.113281 -114.722656 216.65625 -112.265625 C 214.207031 -109.816406 211.226562 -108.59375 207.71875 -108.59375 L 47.59375 -108.59375 C 44.957031 -108.59375 42.628906 -107.671875 40.609375 -105.828125 C 38.597656 -103.992188 37.59375 -101.671875 37.59375 -98.859375 C 37.59375 -96.234375 38.597656 -93.957031 40.609375 -92.03125 C 42.628906 -90.101562 44.957031 -89.140625 47.59375 -89.140625 L 193 -89.140625 C 197.90625 -89.140625 202.503906 -88.21875 206.796875 -86.375 C 211.097656 -84.53125 214.820312 -82.03125 217.96875 -78.875 C 221.125 -75.71875 223.625 -71.992188 225.46875 -67.703125 C 227.3125 -63.410156 228.234375 -58.8125 228.234375 -53.90625 C 228.234375 -49 227.3125 -44.441406 225.46875 -40.234375 C 223.625 -36.023438 221.125 -32.34375 217.96875 -29.1875 C 214.820312 -26.03125 211.097656 -23.570312 206.796875 -21.8125 C 202.503906 -20.0625 197.90625 -19.1875 193 -19.1875 L 33.65625 -19.1875 C 30.144531 -19.1875 27.160156 -20.414062 24.703125 -22.875 C 22.253906 -25.332031 21.03125 -28.3125 21.03125 -31.8125 C 21.03125 -35.320312 22.253906 -38.300781 24.703125 -40.75 C 27.160156 -43.207031 30.144531 -44.4375 33.65625 -44.4375 L 194.046875 -44.4375 C 196.671875 -44.4375 198.945312 -45.351562 200.875 -47.1875 C 202.8125 -49.03125 203.78125 -51.269531 203.78125 -53.90625 C 203.78125 -56.707031 202.8125 -59.070312 200.875 -61 C 198.945312 -62.925781 196.671875 -63.890625 194.046875 -63.890625 Z M 48.125 -63.890625 "/></g></g></g></g></g></g><g clip-path="url(#c1b61d4d9d)"><g transform="matrix(1, 0, 0, 1, 227, 0.000000000000040532)"><g clip-path="url(#e1133dc272)"><g fill="#000000" fill-opacity="1"><g transform="translate(0.727764, 153.021104)"><g><path d="M 14.4375 0 L 14.4375 -115.46875 L 28.859375 -115.46875 L 28.859375 0 Z M 14.4375 0 "/></g></g></g><g fill="#000000" fill-opacity="1"><g transform="translate(38.167731, 153.021104)"><g><path d="M 55.328125 1.65625 C 44.953125 1.65625 36.394531 1.113281 29.65625 0.03125 C 22.914062 -1.039062 17.90625 -3.40625 14.625 -7.0625 C 11.34375 -10.71875 9.703125 -16.40625 9.703125 -24.125 C 9.703125 -32 11.238281 -37.773438 14.3125 -41.453125 C 17.394531 -45.140625 22.28125 -47.535156 28.96875 -48.640625 C 35.664062 -49.742188 44.453125 -50.296875 55.328125 -50.296875 C 64.148438 -50.296875 71.539062 -50.09375 77.5 -49.6875 C 83.46875 -49.289062 88.804688 -48.585938 93.515625 -47.578125 C 93.410156 -54.242188 92.957031 -59.492188 92.15625 -63.328125 C 91.351562 -67.160156 89.847656 -70.003906 87.640625 -71.859375 C 85.441406 -73.710938 82.222656 -74.898438 77.984375 -75.421875 C 73.753906 -75.953125 68.128906 -76.21875 61.109375 -76.21875 C 53.097656 -76.21875 46.820312 -76.039062 42.28125 -75.6875 C 37.75 -75.34375 34.453125 -74.71875 32.390625 -73.8125 C 30.335938 -72.914062 29.046875 -71.613281 28.515625 -69.90625 C 27.992188 -68.207031 27.734375 -66.003906 27.734375 -63.296875 L 13.3125 -63.296875 C 13.3125 -68.703125 14.046875 -73.0625 15.515625 -76.375 C 16.992188 -79.6875 19.515625 -82.191406 23.078125 -83.890625 C 26.640625 -85.597656 31.515625 -86.75 37.703125 -87.34375 C 43.890625 -87.945312 51.691406 -88.25 61.109375 -88.25 C 71.234375 -88.25 79.390625 -87.597656 85.578125 -86.296875 C 91.773438 -84.992188 96.488281 -82.648438 99.71875 -79.265625 C 102.945312 -75.878906 105.125 -71.15625 106.25 -65.09375 C 107.382812 -59.03125 107.953125 -51.210938 107.953125 -41.640625 L 107.953125 0 L 93.515625 0 L 93.515625 -5.9375 C 91.804688 -4.132812 89.445312 -2.679688 86.4375 -1.578125 C 83.4375 -0.472656 79.441406 0.335938 74.453125 0.859375 C 69.472656 1.390625 63.097656 1.65625 55.328125 1.65625 Z M 55.328125 -10.078125 C 63.898438 -10.078125 70.738281 -10.175781 75.84375 -10.375 C 80.957031 -10.570312 84.78125 -11.117188 87.3125 -12.015625 C 89.84375 -12.921875 91.507812 -14.375 92.3125 -16.375 C 93.113281 -18.382812 93.515625 -21.195312 93.515625 -24.8125 L 93.515625 -38.109375 L 55.328125 -38.5625 C 48.554688 -38.664062 43.101562 -38.578125 38.96875 -38.296875 C 34.84375 -38.023438 31.703125 -37.425781 29.546875 -36.5 C 27.390625 -35.570312 25.945312 -34.117188 25.21875 -32.140625 C 24.488281 -30.160156 24.125 -27.488281 24.125 -24.125 C 24.125 -20.875 24.488281 -18.296875 25.21875 -16.390625 C 25.945312 -14.484375 27.390625 -13.078125 29.546875 -12.171875 C 31.703125 -11.273438 34.84375 -10.703125 38.96875 -10.453125 C 43.101562 -10.203125 48.554688 -10.078125 55.328125 -10.078125 Z M 55.328125 -10.078125 "/></g></g></g><g fill="#000000" fill-opacity="1"><g transform="translate(149.562976, 153.021104)"><g><path d="M 62.921875 1.65625 C 53.648438 1.65625 45.816406 0.953125 39.421875 -0.453125 C 33.035156 -1.859375 28.015625 -5.015625 24.359375 -9.921875 L 24.359375 0 L 9.921875 0 L 9.921875 -115.46875 L 24.359375 -115.46875 L 24.359375 -76.75 C 28.015625 -81.613281 33.035156 -84.742188 39.421875 -86.140625 C 45.816406 -87.546875 53.648438 -88.25 62.921875 -88.25 C 72.640625 -88.25 80.867188 -87.75 87.609375 -86.75 C 94.347656 -85.75 99.796875 -83.742188 103.953125 -80.734375 C 108.117188 -77.722656 111.15625 -73.257812 113.0625 -67.34375 C 114.96875 -61.4375 115.921875 -53.570312 115.921875 -43.75 C 115.921875 -33.625 114.96875 -25.53125 113.0625 -19.46875 C 111.15625 -13.40625 108.117188 -8.859375 103.953125 -5.828125 C 99.796875 -2.796875 94.347656 -0.789062 87.609375 0.1875 C 80.867188 1.164062 72.640625 1.65625 62.921875 1.65625 Z M 101.484375 -43.75 C 101.484375 -50.914062 101.117188 -56.648438 100.390625 -60.953125 C 99.660156 -65.265625 98.066406 -68.507812 95.609375 -70.6875 C 93.160156 -72.875 89.34375 -74.34375 84.15625 -75.09375 C 78.96875 -75.84375 71.890625 -76.21875 62.921875 -76.21875 C 54.753906 -76.21875 48.140625 -75.84375 43.078125 -75.09375 C 38.015625 -74.34375 34.128906 -72.875 31.421875 -70.6875 C 28.710938 -68.507812 26.859375 -65.265625 25.859375 -60.953125 C 24.859375 -56.648438 24.359375 -50.914062 24.359375 -43.75 C 24.359375 -36.332031 24.859375 -30.394531 25.859375 -25.9375 C 26.859375 -21.476562 28.710938 -18.128906 31.421875 -15.890625 C 34.128906 -13.660156 38.015625 -12.179688 43.078125 -11.453125 C 48.140625 -10.734375 54.753906 -10.375 62.921875 -10.375 C 71.890625 -10.375 78.96875 -10.734375 84.15625 -11.453125 C 89.34375 -12.179688 93.160156 -13.660156 95.609375 -15.890625 C 98.066406 -18.128906 99.660156 -21.476562 100.390625 -25.9375 C 101.117188 -30.394531 101.484375 -36.332031 101.484375 -43.75 Z M 101.484375 -43.75 "/></g></g></g></g></g></g></svg>